<svg xmlns="http://www.w3.org/2000/svg" viewBox="0 0 24.56 24.56"><defs><style>.cls-1{fill:none;stroke:#9ea4a9;stroke-linecap:round;stroke-linejoin:round;stroke-width:1.5px;}.cls-2{fill:#9ea4a9;}</style></defs><g id="Layer_2" data-name="Layer 2"><g id="content"><circle class="cls-1" cx="12.28" cy="12.28" r="11.53"/><path class="cls-2" d="M7.9,9.31a3.21,3.21,0,0,1,.53-1.69A4.23,4.23,0,0,1,10,6.2a5,5,0,0,1,2.4-.56,5.16,5.16,0,0,1,2.24.47,3.74,3.74,0,0,1,1.51,1.28,3.15,3.15,0,0,1,.53,1.75,2.64,2.64,0,0,1-.31,1.31,4,4,0,0,1-.72,1c-.27.27-.77.73-1.49,1.37a5.39,5.39,0,0,0-.48.48,1.93,1.93,0,0,0-.27.38,2,2,0,0,0-.13.34l-.15.6a1,1,0,0,1-1,.91,1.08,1.08,0,0,1-.77-.3,1.19,1.19,0,0,1-.31-.88,3.16,3.16,0,0,1,.83-2.23c.26-.27.6-.59,1-1a10.32,10.32,0,0,0,.81-.74,2.23,2.23,0,0,0,.42-.55,1.31,1.31,0,0,0,.17-.67A1.53,1.53,0,0,0,13.73,8a1.84,1.84,0,0,0-1.34-.49A1.86,1.86,0,0,0,11,8a4,4,0,0,0-.78,1.43c-.19.66-.57,1-1.13,1a1.14,1.14,0,0,1-.83-.35A1.07,1.07,0,0,1,7.9,9.31Zm4.28,9.61a1.4,1.4,0,0,1-.94-.35,1.33,1.33,0,0,1,0-1.89,1.27,1.27,0,0,1,.95-.38,1.28,1.28,0,0,1,1.3,1.3,1.24,1.24,0,0,1-.39,1A1.35,1.35,0,0,1,12.18,18.92Z"/></g></g></svg>