<svg xmlns="http://www.w3.org/2000/svg" viewBox="0 0 23.13 24.56"><defs><style>.cls-1{fill:none;stroke:#9ea4a9;stroke-linecap:round;stroke-linejoin:round;stroke-width:1.5px;}</style></defs><g id="Layer_2" data-name="Layer 2"><g id="content"><path class="cls-1" d="M1.57,10.24a2.53,2.53,0,0,1,0,4.08h0a2,2,0,0,0-.67,2.32,11.7,11.7,0,0,0,1.52,2.64,2,2,0,0,0,2.39.63,2.54,2.54,0,0,1,3.54,2h0a2,2,0,0,0,1.73,1.76,12.46,12.46,0,0,0,3,0A2,2,0,0,0,14.8,22h0a2.53,2.53,0,0,1,3.53-2,2,2,0,0,0,2.39-.63,11.33,11.33,0,0,0,1.52-2.64,2,2,0,0,0-.67-2.32h0a2.54,2.54,0,0,1,0-4.08h0a2,2,0,0,0,.67-2.33,11.33,11.33,0,0,0-1.52-2.64,2,2,0,0,0-2.39-.63,2.53,2.53,0,0,1-3.53-2,2,2,0,0,0-.57-1.18A2,2,0,0,0,13.06.85a11.23,11.23,0,0,0-3,0A2,2,0,0,0,8.34,2.6a2.54,2.54,0,0,1-3.54,2,2,2,0,0,0-2.39.63A11.7,11.7,0,0,0,.89,7.91a2,2,0,0,0,.67,2.33Z"/><circle class="cls-1" cx="11.57" cy="12.28" r="4.4"/></g></g></svg>