<svg xmlns="http://www.w3.org/2000/svg" viewBox="0 0 21.9 23.13"><defs><style>.cls-1{fill:#bac7db;}</style></defs><g id="Layer_2" data-name="Layer 2"><g id="content"><path class="cls-1" d="M4.87,11.07h8.61a.75.75,0,0,0,0-1.5H4.87a.75.75,0,0,0,0,1.5Z"/><path class="cls-1" d="M8.65,17.07H4.87a.75.75,0,0,0,0,1.5H8.65a.75.75,0,0,0,0-1.5Z"/><path class="cls-1" d="M21.9,10.63a2.42,2.42,0,0,0-3.55-2.15V7a.43.43,0,0,1,0,0,1.29,1.29,0,0,0,0-.19l0-.07a.64.64,0,0,0-.14-.22L11.87.22a.66.66,0,0,0-.22-.15l-.05,0a.78.78,0,0,0-.22,0H3A3,3,0,0,0,0,3V20.11a3,3,0,0,0,3,3H15.32a3,3,0,0,0,3-3V15.18l2.84-2.84A2.41,2.41,0,0,0,21.9,10.63ZM12.09,2.56l3.7,3.69H13.62a1.53,1.53,0,0,1-1.53-1.53Zm4.76,17.55a1.53,1.53,0,0,1-1.53,1.52H3A1.53,1.53,0,0,1,1.5,20.11V3A1.54,1.54,0,0,1,3,1.5h7.56V4.72a3,3,0,0,0,3,3h3.23V9.81l-3.51,3.51H4.87a.75.75,0,0,0,0,1.5H12l0,0L11,18.16a.76.76,0,0,0,.73,1l.2,0,3.31-.94a.69.69,0,0,0,.33-.19l1.28-1.28Zm3.28-8.83-5.48,5.48-1.84.52.52-1.83L18.81,10a.92.92,0,0,1,1.32,0,.93.93,0,0,1,0,1.31Z"/></g></g></svg>