<svg xmlns="http://www.w3.org/2000/svg" viewBox="0 0 24.56 24.56"><defs><style>.cls-1{fill:none;stroke:#ed1c24;stroke-linecap:round;stroke-linejoin:round;stroke-width:1.5px;}.cls-2{fill:#ed1c24;}</style></defs><g id="Layer_2" data-name="Layer 2"><g id="content"><circle class="cls-1" cx="12.28" cy="12.28" r="11.53"/><path class="cls-2" d="M11.32,13.15,11,9C11,8.13,11,7.54,11,7.19a1.57,1.57,0,0,1,.38-1.14,1.31,1.31,0,0,1,1-.41,1,1,0,0,1,1,.53,3.45,3.45,0,0,1,.26,1.5,9.18,9.18,0,0,1-.07,1.17l-.37,4.33a3.21,3.21,0,0,1-.27,1.18.67.67,0,0,1-.66.41.66.66,0,0,1-.66-.4A3.94,3.94,0,0,1,11.32,13.15Zm1,5.77a1.36,1.36,0,0,1-.93-.35,1.2,1.2,0,0,1-.4-1,1.22,1.22,0,0,1,.38-.92,1.27,1.27,0,0,1,.93-.38,1.33,1.33,0,0,1,1,.38,1.33,1.33,0,0,1,0,1.89A1.35,1.35,0,0,1,12.29,18.92Z"/></g></g></svg>